<svg xmlns="http://www.w3.org/2000/svg" viewBox="0 0 24 24" fill="none" stroke="currentColor" stroke-linecap="round" stroke-linejoin="round" id="Snail--Streamline-Lucide">
  <desc>
    Snail Streamline Icon: https://streamlinehq.com
  </desc>
  <path d="M2 13a6 6 0 1 0 12 0 4 4 0 1 0 -8 0 2 2 0 0 0 4 0" stroke-width="2"></path>
  <path d="M2 13a8 8 0 1 0 16 0 8 8 0 1 0 -16 0" stroke-width="2"></path>
  <path d="M2 21h12c4.4 0 8 -3.6 8 -8V7a2 2 0 1 0 -4 0v6" stroke-width="2"></path>
  <path d="m18 3 1.1 2.2" stroke-width="2"></path>
  <path d="m22 3 -1.1 2.2" stroke-width="2"></path>
</svg>