<svg xmlns="http://www.w3.org/2000/svg" viewBox="0 0 24 24" fill="none" stroke="currentColor" stroke-linecap="round" stroke-linejoin="round" id="Swatch-Book--Streamline-Lucide">
  <desc>
    Swatch Book Streamline Icon: https://streamlinehq.com
  </desc>
  <path d="M11 17a4 4 0 0 1 -8 0V5a2 2 0 0 1 2 -2h4a2 2 0 0 1 2 2Z" stroke-width="2"></path>
  <path d="M16.7 13H19a2 2 0 0 1 2 2v4a2 2 0 0 1 -2 2H7" stroke-width="2"></path>
  <path d="M7 17h0.01" stroke-width="2"></path>
  <path d="m11 8 2.3 -2.3a2.4 2.4 0 0 1 3.404 0.004L18.6 7.6a2.4 2.4 0 0 1 0.026 3.434L9.9 19.8" stroke-width="2"></path>
</svg>