<svg width="455" height="510" viewBox="0 0 455 510" fill="none" xmlns="http://www.w3.org/2000/svg">
<path d="M124.067 83.5255L124.014 57.2546C123.922 39.2994 122.85 26.7612 136.488 13.0768C152.004 -2.49164 168.68 0.203119 188.725 0.143113C220.682 0.0469809 252.608 0.220873 284.582 0.190258C298.09 0.177399 308.591 3.87939 318.21 13.6867C330.872 26.7612 330.15 39.9888 330.101 56.7599L330.003 83.5507L376.544 83.5115C399.94 83.4992 420.422 80.2975 438.393 98.2209C455.005 114.789 454.313 132.305 453.982 154.2C453.272 201.195 454.901 248.722 453.909 295.668C426.643 321.627 390.835 352.465 355.016 366.095C354.881 353.99 353.754 339.346 354.912 327.569C357.073 305.475 345.702 309.967 328.827 309.931V237.177C328.821 228.058 328.497 216.303 328.987 207.384C329.219 203.114 337.363 190.983 339.922 186.494C337.663 171.645 333.695 151.176 330.291 136.162C320.58 136.173 310.66 136.074 300.974 136.214C297.875 152.413 294.177 170.275 291.771 186.485C293.957 190.099 302.327 203.071 302.67 205.802C303.931 215.705 303.282 230.493 303.27 240.647C303.398 263.732 303.374 286.817 303.196 309.901C278.502 309.789 276.769 307.028 276.928 332.972C248.052 324.816 218.159 322.689 188.84 330.215C188.752 317.621 187.101 298.31 190.684 286.537C190.853 285.981 202.314 279.863 204.382 278.302C221.692 265.003 232.193 244.701 233.057 222.89C234.171 203.11 227.154 183.735 213.647 169.248C209.03 164.26 196.854 153.821 190.083 153.183C187.294 156.317 188.807 209.916 188.586 218.922C178.656 224.686 167.467 230.487 157.245 235.861C149.452 232.019 131.272 223.427 124.245 219.025C124.145 212.303 124.765 163.456 123.348 160.607C121.827 160.372 119.889 161.629 118.709 162.664C81.0534 195.711 84.5998 250.698 123.37 280.05C124.733 290.314 124.332 302.128 124.319 312.613L124.271 360.725C120.601 363.787 114.047 370.289 109.529 369.083C69.6063 358.441 28.6732 322.661 0.403657 296.085C-0.203137 290.774 0.0540262 281.449 0.0546385 275.789L0.0711569 241.46L0.0270952 137.448C0.161802 122.238 4.51466 108.948 15.6494 98.1633C22.209 91.7757 30.3588 87.2606 39.2525 85.0863C49.7327 82.4773 95.2698 83.4821 108.357 83.6027C113.593 83.5304 118.83 83.5047 124.067 83.5255Z" fill="#1269E6"/>
<path d="M0.403657 296.085C-0.203137 290.774 0.0540262 281.449 0.0546385 275.789L0.0711569 241.46L0.0270952 137.448C0.161802 122.238 4.51466 108.948 15.6494 98.1633C22.209 91.7757 30.3588 87.2606 39.2525 85.0863C49.7327 82.4773 95.2698 83.482 108.357 83.6027C95.0053 85.9582 66.7952 84.5144 52.0693 84.455L53.3784 85.7335C50.421 88.4668 43.6121 90.4942 39.7595 92.1247C34.4612 94.3664 14.7077 103.189 11.1925 106.041C4.12585 111.772 0.555504 130.138 0.896557 138.715C0.671842 153.029 0.704306 166.188 0.687161 179.945L0.61978 253.368C0.612432 264.646 1.19475 285.579 0.403657 296.085Z" fill="#1269E6"/>
<path d="M165.789 34.6838C167.209 34.5932 168.629 34.5197 170.05 34.4622C193.205 33.5829 218.588 34.8975 242.045 34.3587C257.084 34.5626 272.263 33.8603 287.264 34.7505C290.834 34.9624 295.757 39.6018 296.143 43.1336C297.569 56.2443 296.798 70.2391 296.687 83.4955L288.336 83.5341L157.417 83.5482C157.415 74.5522 157.114 65.5054 157.188 56.5106C157.268 46.704 155.926 39.5829 165.789 34.6838Z" fill="white"/>
<path d="M0.314861 327.103C26.9373 349.869 50.9586 369.701 82.9387 384.152C113.54 397.978 117.353 396.135 141.852 376.143C168.25 354.608 207.928 346.636 242.094 349.661C261.37 351.326 280.076 357.07 296.963 366.511C302.645 369.714 308.493 373.381 313.74 377.251C322.729 383.876 328.05 391.848 340.29 392.7C371.646 394.879 431.076 347.383 453.75 326.99C453.842 331.397 453.903 335.804 453.94 340.212L453.976 416.867C454.001 433.755 455.158 456.275 451.986 472.538C450.603 479.647 443.947 489.67 438.675 494.746C422.883 509.974 409.603 509.778 389.464 509.693L362.896 509.674C362.81 509.533 362.725 509.393 362.633 509.252L362.18 508.56C360.11 505.364 359.608 505.137 355.769 504.953L327.003 504.88C325.337 490.399 321.927 482.206 315.626 469.47C320.335 465.111 335.906 451.579 338.673 447.023C339.151 441.868 325.454 429.456 321.884 425.244C318.492 421.239 311.915 413.714 306.772 413.163C302.106 415.196 288.679 429.493 283.401 434.177C271.699 426.346 264.425 423.603 251.352 419.598C251.426 413.224 252.259 391.163 250.532 386.497C248.168 384.317 242.578 383.57 239.468 383.791C230.448 384.433 211.355 381.703 203.96 386.154C201.63 389.54 202.677 413.512 202.733 419.5C187.088 424.803 184.961 425.029 170.751 434.153C164.631 428.764 152.672 415.777 145.937 413.322C141.352 411.65 116.303 441.715 115.272 446.619C116.991 450.513 133.754 465.16 138.34 469.599C131.447 482.127 129.176 491.146 126.518 504.837C116.463 505.272 106.27 504.384 96.222 505.119C94.4922 505.241 93.3864 506.992 92.4441 508.339C91.3517 509.901 86.3333 509.693 84.7817 509.705L61.1712 509.687C41.4605 509.595 29.2469 508.419 14.513 493.779C0.401801 479.763 -0.154778 464.266 0.206482 445.56C0.371804 437 0.227316 427.919 0.229765 419.286L0.314861 327.103Z" fill="#182C40"/>
<path d="M221.631 458.553C241.225 456.018 262.57 466.048 274.191 481.68C281.055 490.913 283.492 498.537 285.568 509.644L232.389 509.625L168.577 509.65C173.354 481.165 192.612 461.78 221.631 458.553Z" fill="#182C40"/>
</svg>
